# xmcd CD database file
#
# Track frame offsets:
#	150
#	96212
#	149387
#	239162
#
# Disc length: 4421 seconds
#
# Revision: 0
# Processed by: cddbd v1.4PL0 Copyright (c) Steve Scherf et al.
# Submitted via: CDex 1.50
#
DISCID=37114304
DTITLE=The Ganelin Trio - Non Troppo
DYEAR=1980
DGENRE=Jazz
TTITLE0=Ancora da Capo I
TTITLE1=Ancora da Capo II
TTITLE2=Non Troppo I
TTITLE3=Non Troppo II
EXTD=YEAR: 1980
EXTT0=
EXTT1=
EXTT2=
EXTT3=
PLAYORDER=
